<svg width="512" height="512" viewBox="0 0 512 512" fill="none" xmlns="http://www.w3.org/2000/svg">
<path d="M512 256C512 397.385 397.385 512 256 512C114.615 512 0 397.385 0 256C0 114.615 114.615 0 256 0C397.385 0 512 114.615 512 256Z" fill="#FFCB37"/>
<path d="M234.5 225C210.5 249.395 243.2 294.972 276.48 294.972C312.32 294.972 336 267.89 336 233.541C336 193.908 303.36 159.56 270.08 159.56C226.56 159.56 179.2 191.266 179.2 238.826C179.2 296.954 222.72 339.229 279.04 339.229C340.48 339.229 384 294.312 384 233.541C384 164.844 330.24 112 263.68 112C186.88 112 128 170.128 128 249.395C128 336.587 192 400 276.48 400" stroke="#8A571A" stroke-width="26" stroke-linecap="round" stroke-linejoin="round"/>
</svg>
