<svg width="47" height="35" viewBox="0 0 47 35" fill="none" xmlns="http://www.w3.org/2000/svg">
<path d="M45.3125 31.25H43.75V20.3125C43.75 19.4837 43.4208 18.6888 42.8347 18.1028C42.2487 17.5167 41.4538 17.1875 40.625 17.1875H32.8125V3.125C32.8125 2.2962 32.4833 1.50134 31.8972 0.915291C31.3112 0.32924 30.5163 0 29.6875 0H17.1875C16.3587 0 15.5638 0.32924 14.9778 0.915291C14.3917 1.50134 14.0625 2.2962 14.0625 3.125V9.375H6.25C5.4212 9.375 4.62634 9.70424 4.04029 10.2903C3.45424 10.8763 3.125 11.6712 3.125 12.5V31.25H1.5625C1.1481 31.25 0.750671 31.4146 0.457646 31.7076C0.16462 32.0007 0 32.3981 0 32.8125C0 33.2269 0.16462 33.6243 0.457646 33.9174C0.750671 34.2104 1.1481 34.375 1.5625 34.375H45.3125C45.7269 34.375 46.1243 34.2104 46.4174 33.9174C46.7104 33.6243 46.875 33.2269 46.875 32.8125C46.875 32.3981 46.7104 32.0007 46.4174 31.7076C46.1243 31.4146 45.7269 31.25 45.3125 31.25ZM14.0625 31.25H6.25V12.5H14.0625V31.25ZM25.7812 18.75C25.7812 19.1644 25.6166 19.5618 25.3236 19.8549C25.0306 20.1479 24.6332 20.3125 24.2188 20.3125C23.8043 20.3125 23.4069 20.1479 23.1139 19.8549C22.8209 19.5618 22.6562 19.1644 22.6562 18.75V13.1055L22.3691 13.2012C22.1745 13.2661 21.9689 13.292 21.7642 13.2774C21.5595 13.2629 21.3597 13.2082 21.1762 13.1164C20.9926 13.0246 20.829 12.8976 20.6945 12.7426C20.5601 12.5876 20.4575 12.4076 20.3926 12.2129C20.3277 12.0182 20.3018 11.8127 20.3163 11.608C20.3309 11.4033 20.3856 11.2035 20.4774 11.0199C20.5691 10.8364 20.6962 10.6727 20.8512 10.5383C21.0062 10.4038 21.1862 10.3012 21.3809 10.2363L23.7246 9.45508C23.9595 9.37678 24.2096 9.35542 24.4544 9.39275C24.6992 9.43009 24.9315 9.52507 25.1324 9.66984C25.3332 9.81462 25.4968 10.0051 25.6096 10.2255C25.7224 10.4459 25.7813 10.6899 25.7812 10.9375V18.75ZM40.625 31.25H32.8125V20.3125H40.625V31.25Z" fill="black"/>
</svg>
